<svg width="24" height="24" viewBox="0 0 24 24" fill="none" xmlns="http://www.w3.org/2000/svg">
<g clip-path="url(#clip0_137_453)">
<path d="M6 20C7.65685 20 9 18.6569 9 17C9 15.3431 7.65685 14 6 14C4.34315 14 3 15.3431 3 17C3 18.6569 4.34315 20 6 20Z" stroke="url(#paint0_linear_137_453)" stroke-width="2" stroke-linecap="round" stroke-linejoin="round"/>
<path d="M16 20C17.6569 20 19 18.6569 19 17C19 15.3431 17.6569 14 16 14C14.3431 14 13 15.3431 13 17C13 18.6569 14.3431 20 16 20Z" stroke="url(#paint1_linear_137_453)" stroke-width="2" stroke-linecap="round" stroke-linejoin="round"/>
<path d="M9 17V4H19V17" stroke="url(#paint2_linear_137_453)" stroke-width="2" stroke-linecap="round" stroke-linejoin="round"/>
<path d="M9 8H19" stroke="url(#paint3_linear_137_453)" stroke-width="2" stroke-linecap="round" stroke-linejoin="round"/>
</g>
<defs>
<linearGradient id="paint0_linear_137_453" x1="6" y1="14" x2="6" y2="20" gradientUnits="userSpaceOnUse">
<stop stop-color="#4ACFB1"/>
<stop offset="1" stop-color="#00A6FF"/>
</linearGradient>
<linearGradient id="paint1_linear_137_453" x1="16" y1="14" x2="16" y2="20" gradientUnits="userSpaceOnUse">
<stop stop-color="#4ACFB1"/>
<stop offset="1" stop-color="#00A6FF"/>
</linearGradient>
<linearGradient id="paint2_linear_137_453" x1="14" y1="4" x2="14" y2="17" gradientUnits="userSpaceOnUse">
<stop stop-color="#4ACFB1"/>
<stop offset="1" stop-color="#00A6FF"/>
</linearGradient>
<linearGradient id="paint3_linear_137_453" x1="14" y1="8" x2="14" y2="9" gradientUnits="userSpaceOnUse">
<stop stop-color="#4ACFB1"/>
<stop offset="1" stop-color="#00A6FF"/>
</linearGradient>
<clipPath id="clip0_137_453">
<rect width="24" height="24" fill="white"/>
</clipPath>
</defs>
</svg>
