<svg width="24" height="24" viewBox="0 0 24 24" fill="none" xmlns="http://www.w3.org/2000/svg">
<g clip-path="url(#clip0_132_496)">
<path d="M14 3V7C14 7.26522 14.1054 7.51957 14.2929 7.70711C14.4804 7.89464 14.7348 8 15 8H19" stroke="url(#paint0_linear_132_496)" stroke-width="2" stroke-linecap="round" stroke-linejoin="round"/>
<path d="M17 21H7C6.46957 21 5.96086 20.7893 5.58579 20.4142C5.21071 20.0391 5 19.5304 5 19V5C5 4.46957 5.21071 3.96086 5.58579 3.58579C5.96086 3.21071 6.46957 3 7 3H14L19 8V19C19 19.5304 18.7893 20.0391 18.4142 20.4142C18.0391 20.7893 17.5304 21 17 21Z" stroke="url(#paint1_linear_132_496)" stroke-width="2" stroke-linecap="round" stroke-linejoin="round"/>
<path d="M10 13L9 15L10 17" stroke="url(#paint2_linear_132_496)" stroke-width="2" stroke-linecap="round" stroke-linejoin="round"/>
<path d="M14 13L15 15L14 17" stroke="url(#paint3_linear_132_496)" stroke-width="2" stroke-linecap="round" stroke-linejoin="round"/>
</g>
<defs>
<linearGradient id="paint0_linear_132_496" x1="16.5" y1="3" x2="16.5" y2="8" gradientUnits="userSpaceOnUse">
<stop stop-color="#4ACFB1"/>
<stop offset="1" stop-color="#00A6FF"/>
</linearGradient>
<linearGradient id="paint1_linear_132_496" x1="12" y1="3" x2="12" y2="21" gradientUnits="userSpaceOnUse">
<stop stop-color="#4ACFB1"/>
<stop offset="1" stop-color="#00A6FF"/>
</linearGradient>
<linearGradient id="paint2_linear_132_496" x1="9.5" y1="13" x2="9.5" y2="17" gradientUnits="userSpaceOnUse">
<stop stop-color="#4ACFB1"/>
<stop offset="1" stop-color="#00A6FF"/>
</linearGradient>
<linearGradient id="paint3_linear_132_496" x1="14.5" y1="13" x2="14.5" y2="17" gradientUnits="userSpaceOnUse">
<stop stop-color="#4ACFB1"/>
<stop offset="1" stop-color="#00A6FF"/>
</linearGradient>
<clipPath id="clip0_132_496">
<rect width="24" height="24" fill="white"/>
</clipPath>
</defs>
</svg>
