<svg width="24" height="24" viewBox="0 0 24 24" fill="none" xmlns="http://www.w3.org/2000/svg">
<g clip-path="url(#clip0_135_454)">
<path d="M22 12.5416C20.196 12.1966 19.299 11.4616 18.477 9.60156C17.99 10.2976 17.375 11.1696 17.557 12.0016C17.585 12.2396 17.237 13.0036 17 13.0016H3C3 18.2096 6.164 20.0016 9.196 20.0016C13.32 20.0236 17.024 18.6256 19.05 15.0016C20.196 14.9006 21.346 13.4966 22 12.5416V12.5416Z" stroke="url(#paint0_linear_135_454)" stroke-width="2" stroke-linecap="round" stroke-linejoin="round"/>
<path d="M5 10H8V13H5V10Z" stroke="url(#paint1_linear_135_454)" stroke-width="2" stroke-linecap="round" stroke-linejoin="round"/>
<path d="M8 10H11V13H8V10Z" stroke="url(#paint2_linear_135_454)" stroke-width="2" stroke-linecap="round" stroke-linejoin="round"/>
<path d="M11 10H14V13H11V10Z" stroke="url(#paint3_linear_135_454)" stroke-width="2" stroke-linecap="round" stroke-linejoin="round"/>
<path d="M8 7H11V10H8V7Z" stroke="url(#paint4_linear_135_454)" stroke-width="2" stroke-linecap="round" stroke-linejoin="round"/>
<path d="M11 7H14V10H11V7Z" stroke="url(#paint5_linear_135_454)" stroke-width="2" stroke-linecap="round" stroke-linejoin="round"/>
<path d="M11 4H14V7H11V4Z" stroke="url(#paint6_linear_135_454)" stroke-width="2" stroke-linecap="round" stroke-linejoin="round"/>
<path d="M4.57129 17.9988C6.07129 17.9988 6.61829 17.9247 7.52929 17.2188" stroke="url(#paint7_linear_135_454)" stroke-width="2" stroke-linecap="round" stroke-linejoin="round"/>
<path d="M10 16V16.01" stroke="url(#paint8_linear_135_454)" stroke-width="2" stroke-linecap="round" stroke-linejoin="round"/>
</g>
<defs>
<linearGradient id="paint0_linear_135_454" x1="12.5" y1="9.60156" x2="12.5" y2="20.0018" gradientUnits="userSpaceOnUse">
<stop stop-color="#4ACFB1"/>
<stop offset="1" stop-color="#00A6FF"/>
</linearGradient>
<linearGradient id="paint1_linear_135_454" x1="6.5" y1="10" x2="6.5" y2="13" gradientUnits="userSpaceOnUse">
<stop stop-color="#4ACFB1"/>
<stop offset="1" stop-color="#00A6FF"/>
</linearGradient>
<linearGradient id="paint2_linear_135_454" x1="9.5" y1="10" x2="9.5" y2="13" gradientUnits="userSpaceOnUse">
<stop stop-color="#4ACFB1"/>
<stop offset="1" stop-color="#00A6FF"/>
</linearGradient>
<linearGradient id="paint3_linear_135_454" x1="12.5" y1="10" x2="12.5" y2="13" gradientUnits="userSpaceOnUse">
<stop stop-color="#4ACFB1"/>
<stop offset="1" stop-color="#00A6FF"/>
</linearGradient>
<linearGradient id="paint4_linear_135_454" x1="9.5" y1="7" x2="9.5" y2="10" gradientUnits="userSpaceOnUse">
<stop stop-color="#4ACFB1"/>
<stop offset="1" stop-color="#00A6FF"/>
</linearGradient>
<linearGradient id="paint5_linear_135_454" x1="12.5" y1="7" x2="12.5" y2="10" gradientUnits="userSpaceOnUse">
<stop stop-color="#4ACFB1"/>
<stop offset="1" stop-color="#00A6FF"/>
</linearGradient>
<linearGradient id="paint6_linear_135_454" x1="12.5" y1="4" x2="12.5" y2="7" gradientUnits="userSpaceOnUse">
<stop stop-color="#4ACFB1"/>
<stop offset="1" stop-color="#00A6FF"/>
</linearGradient>
<linearGradient id="paint7_linear_135_454" x1="6.05029" y1="17.2188" x2="6.05029" y2="17.9988" gradientUnits="userSpaceOnUse">
<stop stop-color="#4ACFB1"/>
<stop offset="1" stop-color="#00A6FF"/>
</linearGradient>
<linearGradient id="paint8_linear_135_454" x1="10.5" y1="16" x2="10.5" y2="16.01" gradientUnits="userSpaceOnUse">
<stop stop-color="#4ACFB1"/>
<stop offset="1" stop-color="#00A6FF"/>
</linearGradient>
<clipPath id="clip0_135_454">
<rect width="24" height="24" fill="white"/>
</clipPath>
</defs>
</svg>
