<svg width="24" height="24" viewBox="0 0 24 24" fill="none" xmlns="http://www.w3.org/2000/svg">
<g clip-path="url(#clip0_130_483)">
<path d="M5 4H9L12 7H19C19.5304 7 20.0391 7.21071 20.4142 7.58579C20.7893 7.96086 21 8.46957 21 9V17C21 17.5304 20.7893 18.0391 20.4142 18.4142C20.0391 18.7893 19.5304 19 19 19H5C4.46957 19 3.96086 18.7893 3.58579 18.4142C3.21071 18.0391 3 17.5304 3 17V6C3 5.46957 3.21071 4.96086 3.58579 4.58579C3.96086 4.21071 4.46957 4 5 4" stroke="url(#paint0_linear_130_483)" stroke-width="2" stroke-linecap="round" stroke-linejoin="round"/>
<path d="M12 10V16" stroke="url(#paint1_linear_130_483)" stroke-width="2" stroke-linecap="round" stroke-linejoin="round"/>
<path d="M9 13H15" stroke="url(#paint2_linear_130_483)" stroke-width="2" stroke-linecap="round" stroke-linejoin="round"/>
</g>
<defs>
<linearGradient id="paint0_linear_130_483" x1="12" y1="4" x2="12" y2="19" gradientUnits="userSpaceOnUse">
<stop stop-color="#4ACFB1"/>
<stop offset="1" stop-color="#00A6FF"/>
</linearGradient>
<linearGradient id="paint1_linear_130_483" x1="12.5" y1="10" x2="12.5" y2="16" gradientUnits="userSpaceOnUse">
<stop stop-color="#4ACFB1"/>
<stop offset="1" stop-color="#00A6FF"/>
</linearGradient>
<linearGradient id="paint2_linear_130_483" x1="12" y1="13" x2="12" y2="14" gradientUnits="userSpaceOnUse">
<stop stop-color="#4ACFB1"/>
<stop offset="1" stop-color="#00A6FF"/>
</linearGradient>
<clipPath id="clip0_130_483">
<rect width="24" height="24" fill="white"/>
</clipPath>
</defs>
</svg>
