<svg width="24" height="24" viewBox="0 0 24 24" fill="none" xmlns="http://www.w3.org/2000/svg">
<g clip-path="url(#clip0_135_447)">
<path d="M5 11H19V8H5V11Z" stroke="url(#paint0_linear_135_447)" stroke-width="2" stroke-linecap="round" stroke-linejoin="round"/>
<path d="M17.5 11L16 21H8L6.5 11" stroke="url(#paint1_linear_135_447)" stroke-width="2" stroke-linecap="round" stroke-linejoin="round"/>
<path d="M6 8V7C6 6.46957 6.21071 5.96086 6.58579 5.58579C6.96086 5.21071 7.46957 5 8 5H16C16.5304 5 17.0391 5.21071 17.4142 5.58579C17.7893 5.96086 18 6.46957 18 7V8" stroke="url(#paint2_linear_135_447)" stroke-width="2" stroke-linecap="round" stroke-linejoin="round"/>
<path d="M15 5V3" stroke="url(#paint3_linear_135_447)" stroke-width="2" stroke-linecap="round" stroke-linejoin="round"/>
</g>
<defs>
<linearGradient id="paint0_linear_135_447" x1="12" y1="8" x2="12" y2="11" gradientUnits="userSpaceOnUse">
<stop stop-color="#4ACFB1"/>
<stop offset="1" stop-color="#00A6FF"/>
</linearGradient>
<linearGradient id="paint1_linear_135_447" x1="12" y1="11" x2="12" y2="21" gradientUnits="userSpaceOnUse">
<stop stop-color="#4ACFB1"/>
<stop offset="1" stop-color="#00A6FF"/>
</linearGradient>
<linearGradient id="paint2_linear_135_447" x1="12" y1="5" x2="12" y2="8" gradientUnits="userSpaceOnUse">
<stop stop-color="#4ACFB1"/>
<stop offset="1" stop-color="#00A6FF"/>
</linearGradient>
<linearGradient id="paint3_linear_135_447" x1="15.5" y1="3" x2="15.5" y2="5" gradientUnits="userSpaceOnUse">
<stop stop-color="#4ACFB1"/>
<stop offset="1" stop-color="#00A6FF"/>
</linearGradient>
<clipPath id="clip0_135_447">
<rect width="24" height="24" fill="white"/>
</clipPath>
</defs>
</svg>
