<svg width="24" height="24" viewBox="0 0 24 24" fill="none" xmlns="http://www.w3.org/2000/svg">
<g clip-path="url(#clip0_135_476)">
<path d="M3 14.0006C3.83 14.6426 5.077 15.0176 6.5 15.0006C7.923 15.0176 9.17 14.6426 10 14.0006C10.83 13.3586 12.077 12.9836 13.5 13.0006C14.923 12.9836 16.17 13.3586 17 14.0006" stroke="url(#paint0_linear_135_476)" stroke-width="2" stroke-linecap="round" stroke-linejoin="round"/>
<path d="M7.99955 3C7.68306 3.22717 7.42662 3.52797 7.2524 3.87642C7.07817 4.22488 6.99139 4.6105 6.99955 5C6.99139 5.3895 7.07817 5.77512 7.2524 6.12358C7.42662 6.47203 7.68306 6.77283 7.99955 7" stroke="url(#paint1_linear_135_476)" stroke-width="2" stroke-linecap="round" stroke-linejoin="round"/>
<path d="M11.9995 3C11.6831 3.22717 11.4266 3.52797 11.2524 3.87642C11.0782 4.22488 10.9914 4.6105 10.9995 5C10.9914 5.3895 11.0782 5.77512 11.2524 6.12358C11.4266 6.47203 11.6831 6.77283 11.9995 7" stroke="url(#paint2_linear_135_476)" stroke-width="2" stroke-linecap="round" stroke-linejoin="round"/>
<path d="M3 10H17V15C17 16.5913 16.3679 18.1174 15.2426 19.2426C14.1174 20.3679 12.5913 21 11 21H9C7.4087 21 5.88258 20.3679 4.75736 19.2426C3.63214 18.1174 3 16.5913 3 15V10Z" stroke="url(#paint3_linear_135_476)" stroke-width="2" stroke-linecap="round" stroke-linejoin="round"/>
<path d="M16.7461 16.7264C17.1927 16.9315 17.6828 17.0236 18.1734 16.9949C18.6639 16.9661 19.1399 16.8172 19.5595 16.5614C19.9791 16.3056 20.3294 15.9506 20.5796 15.5277C20.8298 15.1048 20.9724 14.6269 20.9946 14.136C21.0169 13.6451 20.9182 13.1562 20.7073 12.7124C20.4964 12.2685 20.1797 11.8833 19.785 11.5905C19.3903 11.2978 18.9298 11.1064 18.4438 11.0334C17.9579 10.9603 17.4614 11.0077 16.9981 11.1714" stroke="url(#paint4_linear_135_476)" stroke-width="2" stroke-linecap="round" stroke-linejoin="round"/>
</g>
<defs>
<linearGradient id="paint0_linear_135_476" x1="10" y1="13" x2="10" y2="15.0011" gradientUnits="userSpaceOnUse">
<stop stop-color="#4ACFB1"/>
<stop offset="1" stop-color="#00A6FF"/>
</linearGradient>
<linearGradient id="paint1_linear_135_476" x1="7.49929" y1="3" x2="7.49929" y2="7" gradientUnits="userSpaceOnUse">
<stop stop-color="#4ACFB1"/>
<stop offset="1" stop-color="#00A6FF"/>
</linearGradient>
<linearGradient id="paint2_linear_135_476" x1="11.4993" y1="3" x2="11.4993" y2="7" gradientUnits="userSpaceOnUse">
<stop stop-color="#4ACFB1"/>
<stop offset="1" stop-color="#00A6FF"/>
</linearGradient>
<linearGradient id="paint3_linear_135_476" x1="10" y1="10" x2="10" y2="21" gradientUnits="userSpaceOnUse">
<stop stop-color="#4ACFB1"/>
<stop offset="1" stop-color="#00A6FF"/>
</linearGradient>
<linearGradient id="paint4_linear_135_476" x1="18.8719" y1="11" x2="18.8719" y2="17" gradientUnits="userSpaceOnUse">
<stop stop-color="#4ACFB1"/>
<stop offset="1" stop-color="#00A6FF"/>
</linearGradient>
<clipPath id="clip0_135_476">
<rect width="24" height="24" fill="white"/>
</clipPath>
</defs>
</svg>
