<svg width="24" height="24" viewBox="0 0 24 24" fill="none" xmlns="http://www.w3.org/2000/svg">
<g clip-path="url(#clip0_135_490)">
<path d="M7 20H17" stroke="url(#paint0_linear_135_490)" stroke-width="2" stroke-linecap="round" stroke-linejoin="round"/>
<path d="M6 6L12 5L18 6" stroke="url(#paint1_linear_135_490)" stroke-width="2" stroke-linecap="round" stroke-linejoin="round"/>
<path d="M12 3V20" stroke="url(#paint2_linear_135_490)" stroke-width="2" stroke-linecap="round" stroke-linejoin="round"/>
<path d="M9 12L6 6L3 12C3 12.7956 3.31607 13.5587 3.87868 14.1213C4.44129 14.6839 5.20435 15 6 15C6.79565 15 7.55871 14.6839 8.12132 14.1213C8.68393 13.5587 9 12.7956 9 12Z" stroke="url(#paint3_linear_135_490)" stroke-width="2" stroke-linecap="round" stroke-linejoin="round"/>
<path d="M21 12L18 6L15 12C15 12.7956 15.3161 13.5587 15.8787 14.1213C16.4413 14.6839 17.2044 15 18 15C18.7956 15 19.5587 14.6839 20.1213 14.1213C20.6839 13.5587 21 12.7956 21 12Z" stroke="url(#paint4_linear_135_490)" stroke-width="2" stroke-linecap="round" stroke-linejoin="round"/>
</g>
<defs>
<linearGradient id="paint0_linear_135_490" x1="12" y1="20" x2="12" y2="21" gradientUnits="userSpaceOnUse">
<stop stop-color="#4ACFB1"/>
<stop offset="1" stop-color="#00A6FF"/>
</linearGradient>
<linearGradient id="paint1_linear_135_490" x1="12" y1="5" x2="12" y2="6" gradientUnits="userSpaceOnUse">
<stop stop-color="#4ACFB1"/>
<stop offset="1" stop-color="#00A6FF"/>
</linearGradient>
<linearGradient id="paint2_linear_135_490" x1="12.5" y1="3" x2="12.5" y2="20" gradientUnits="userSpaceOnUse">
<stop stop-color="#4ACFB1"/>
<stop offset="1" stop-color="#00A6FF"/>
</linearGradient>
<linearGradient id="paint3_linear_135_490" x1="6" y1="6" x2="6" y2="15" gradientUnits="userSpaceOnUse">
<stop stop-color="#4ACFB1"/>
<stop offset="1" stop-color="#00A6FF"/>
</linearGradient>
<linearGradient id="paint4_linear_135_490" x1="18" y1="6" x2="18" y2="15" gradientUnits="userSpaceOnUse">
<stop stop-color="#4ACFB1"/>
<stop offset="1" stop-color="#00A6FF"/>
</linearGradient>
<clipPath id="clip0_135_490">
<rect width="24" height="24" fill="white"/>
</clipPath>
</defs>
</svg>
