<svg width="24" height="24" viewBox="0 0 24 24" fill="none" xmlns="http://www.w3.org/2000/svg">
<g clip-path="url(#clip0_130_532)">
<path d="M3 18.9987C4.36817 18.2088 5.92017 17.793 7.5 17.793C9.07983 17.793 10.6318 18.2088 12 18.9987C13.3682 18.2088 14.9202 17.793 16.5 17.793C18.0798 17.793 19.6318 18.2088 21 18.9987" stroke="url(#paint0_linear_130_532)" stroke-width="2" stroke-linecap="round" stroke-linejoin="round"/>
<path d="M3 5.99874C4.36817 5.20883 5.92017 4.79297 7.5 4.79297C9.07983 4.79297 10.6318 5.20883 12 5.99874C13.3682 5.20883 14.9202 4.79297 16.5 4.79297C18.0798 4.79297 19.6318 5.20883 21 5.99874" stroke="url(#paint1_linear_130_532)" stroke-width="2" stroke-linecap="round" stroke-linejoin="round"/>
<path d="M3 6V19" stroke="url(#paint2_linear_130_532)" stroke-width="2" stroke-linecap="round" stroke-linejoin="round"/>
<path d="M12 6V19" stroke="url(#paint3_linear_130_532)" stroke-width="2" stroke-linecap="round" stroke-linejoin="round"/>
<path d="M21 6V19" stroke="url(#paint4_linear_130_532)" stroke-width="2" stroke-linecap="round" stroke-linejoin="round"/>
</g>
<defs>
<linearGradient id="paint0_linear_130_532" x1="12" y1="17.793" x2="12" y2="18.9987" gradientUnits="userSpaceOnUse">
<stop stop-color="#4ACFB1"/>
<stop offset="1" stop-color="#00A6FF"/>
</linearGradient>
<linearGradient id="paint1_linear_130_532" x1="12" y1="4.79297" x2="12" y2="5.99874" gradientUnits="userSpaceOnUse">
<stop stop-color="#4ACFB1"/>
<stop offset="1" stop-color="#00A6FF"/>
</linearGradient>
<linearGradient id="paint2_linear_130_532" x1="3.5" y1="6" x2="3.5" y2="19" gradientUnits="userSpaceOnUse">
<stop stop-color="#4ACFB1"/>
<stop offset="1" stop-color="#00A6FF"/>
</linearGradient>
<linearGradient id="paint3_linear_130_532" x1="12.5" y1="6" x2="12.5" y2="19" gradientUnits="userSpaceOnUse">
<stop stop-color="#4ACFB1"/>
<stop offset="1" stop-color="#00A6FF"/>
</linearGradient>
<linearGradient id="paint4_linear_130_532" x1="21.5" y1="6" x2="21.5" y2="19" gradientUnits="userSpaceOnUse">
<stop stop-color="#4ACFB1"/>
<stop offset="1" stop-color="#00A6FF"/>
</linearGradient>
<clipPath id="clip0_130_532">
<rect width="24" height="24" fill="white"/>
</clipPath>
</defs>
</svg>
