<svg width="24" height="24" viewBox="0 0 24 24" fill="none" xmlns="http://www.w3.org/2000/svg">
<g clip-path="url(#clip0_131_454)">
<path d="M15 9.99865L19.553 7.72265C19.7054 7.64649 19.8748 7.61053 20.045 7.6182C20.2152 7.62587 20.3806 7.6769 20.5256 7.76646C20.6706 7.85602 20.7902 7.98113 20.8733 8.12993C20.9563 8.27872 20.9999 8.44626 21 8.61665V15.3807C20.9999 15.551 20.9563 15.7186 20.8733 15.8674C20.7902 16.0162 20.6706 16.1413 20.5256 16.2308C20.3806 16.3204 20.2152 16.3714 20.045 16.3791C19.8748 16.3868 19.7054 16.3508 19.553 16.2747L15 13.9987V9.99865Z" stroke="url(#paint0_linear_131_454)" stroke-width="2" stroke-linecap="round" stroke-linejoin="round"/>
<path d="M13 6H5C3.89543 6 3 6.89543 3 8V16C3 17.1046 3.89543 18 5 18H13C14.1046 18 15 17.1046 15 16V8C15 6.89543 14.1046 6 13 6Z" stroke="url(#paint1_linear_131_454)" stroke-width="2" stroke-linecap="round" stroke-linejoin="round"/>
</g>
<defs>
<linearGradient id="paint0_linear_131_454" x1="18" y1="7.61719" x2="18" y2="16.3801" gradientUnits="userSpaceOnUse">
<stop stop-color="#4ACFB1"/>
<stop offset="1" stop-color="#00A6FF"/>
</linearGradient>
<linearGradient id="paint1_linear_131_454" x1="9" y1="6" x2="9" y2="18" gradientUnits="userSpaceOnUse">
<stop stop-color="#4ACFB1"/>
<stop offset="1" stop-color="#00A6FF"/>
</linearGradient>
<clipPath id="clip0_131_454">
<rect width="24" height="24" fill="white"/>
</clipPath>
</defs>
</svg>
